<svg xmlns="http://www.w3.org/2000/svg" width="34" height="35" fill="none"><path stroke="#18181B" stroke-linecap="round" stroke-linejoin="round" stroke-width="2.107" d="M15.567 13.61H28.2c.697 0 1.045 0 1.25.226.204.225.177.579.124 1.287L28.7 26.68c-.186 2.46-.279 3.69-1.071 4.439-.793.748-2.003.748-4.424.748h-6.325c-2.421 0-3.632 0-4.424-.748-1.179-1.113-.99-3.368-1.103-4.87"/><path stroke="#18181B" stroke-linecap="round" stroke-linejoin="round" stroke-width="2.107" d="M15.567 13.483v7.66c0 2.408 0 3.611-.823 4.36-.822.747-2.146.747-4.794.747-2.649 0-3.973 0-4.795-.748-.823-.748-.823-1.951-.823-4.359v-1.276c0-3.611 0-5.417 1.234-6.539 1.234-1.122 3.22-1.122 7.192-1.122h1.405c.662 0 .993 0 1.198.187.206.187.206.488.206 1.09Z"/><path stroke="#18181B" stroke-linecap="round" stroke-linejoin="round" stroke-width="2.107" d="M26.802 13.61c0-5.429-3.16-9.83-7.058-9.83-3.555 0-6.496 3.662-6.986 8.426M4.332 20.633h11.235M15.567 19.228h12.64"/></svg>