<svg xmlns="http://www.w3.org/2000/svg" width="34" height="35" fill="none"><path stroke="#18181B" stroke-width="2.107" d="M26.789 27.654h.013m-.013 0c-.875.868-2.46.652-3.571.652-1.364 0-2.021.267-2.995 1.24-.829.83-1.94 2.322-3.252 2.322-1.31 0-2.422-1.493-3.251-2.322-.974-.973-1.63-1.24-2.995-1.24-1.111 0-2.696.216-3.57-.652-.882-.873-.665-2.465-.665-3.584 0-1.413-.31-2.063-1.316-3.07-1.498-1.497-2.246-2.246-2.246-3.176 0-.93.748-1.68 2.246-3.177.898-.898 1.316-1.789 1.316-3.07 0-1.111-.216-2.696.65-3.57.875-.882 2.466-.665 3.585-.665 1.281 0 2.171-.417 3.07-1.316 1.497-1.497 2.246-2.246 3.176-2.246.93 0 1.68.749 3.177 2.246.898.899 1.789 1.316 3.07 1.316 1.111 0 2.696-.216 3.57.651.882.874.665 2.466.665 3.584 0 1.414.31 2.064 1.316 3.07 1.498 1.498 2.246 2.246 2.246 3.177 0 .93-.748 1.679-2.246 3.176-1.007 1.007-1.316 1.657-1.316 3.07 0 1.119.217 2.71-.664 3.584Z"/><path stroke="#18181B" stroke-linecap="round" stroke-linejoin="round" stroke-width="2.107" d="M12.758 19.078s1.686.915 2.528 2.257c0 0 2.528-5.267 5.899-7.022"/></svg>